<svg xmlns="http://www.w3.org/2000/svg" viewBox="19 35 2114 1319"><path fill="currentColor" fill-rule="evenodd" d="M2066.5 1350.3C2064.8 1350.0 2059.0 1348.7 2053.5 1347.3C2044.0 1344.9 2041.5 1344.7 2005.0 1344.0C1983.8 1343.5 1955.7 1342.7 1942.5 1342.1C1883.0 1339.5 1840.0 1338.7 1830.4 1340.1C1820.0 1341.5 1810.6 1340.5 1785.7 1335.3C1761.0 1330.2 1754.3 1326.9 1748.9 1316.7C1742.5 1304.7 1743.6 1287.8 1752.0 1270.3C1758.2 1257.1 1758.5 1255.5 1756.5 1243.4C1753.6 1226.4 1752.2 1224.2 1745.7 1225.4C1736.8 1227.1 1724.9 1239.6 1707.4 1265.6C1701.6 1274.3 1695.7 1282.6 1694.4 1284.0C1693.2 1285.4 1690.8 1289.7 1689.2 1293.6C1683.3 1308.2 1667.2 1324.9 1650.0 1334.3C1614.0 1354.1 1571.3 1348.6 1545.8 1321.1C1538.3 1313.0 1533.5 1304.4 1525.5 1284.7C1515.0 1258.6 1510.3 1252.4 1488.8 1236.4C1469.8 1222.3 1460.3 1217.4 1434.0 1208.5C1407.5 1199.4 1400.0 1195.2 1396.8 1187.3C1390.9 1173.2 1390.8 1172.6 1391.3 1167.2C1392.8 1153.1 1405.7 1143.0 1422.3 1143.0C1432.7 1143.0 1437.2 1145.9 1455.5 1164.5C1471.5 1180.7 1477.7 1185.6 1509.5 1207.2C1535.2 1224.6 1534.8 1224.4 1544.0 1224.4C1558.1 1224.5 1568.0 1216.7 1568.0 1205.5C1567.9 1192.6 1558.4 1166.4 1544.4 1140.5C1540.3 1132.8 1535.3 1122.5 1533.4 1117.5C1524.9 1095.8 1521.3 1093.5 1502.6 1098.5C1488.1 1102.4 1478.3 1101.4 1470.4 1095.4C1459.9 1087.4 1455.3 1069.0 1459.6 1052.6C1463.7 1037.3 1461.1 1022.7 1446.6 978.5C1441.4 962.5 1434.9 942.3 1432.1 933.5C1418.7 890.6 1410.6 873.0 1393.6 850.0C1373.6 822.9 1370.0 811.4 1377.1 797.1C1387.5 776.3 1417.6 777.4 1428.5 799.0C1433.5 808.8 1434.1 813.0 1435.0 842.0C1436.1 881.1 1439.3 896.4 1456.0 945.0C1468.5 981.3 1471.7 991.3 1474.5 1002.5C1481.9 1032.7 1489.5 1041.5 1508.0 1041.5C1516.8 1041.5 1518.1 1041.2 1526.0 1037.7C1544.0 1029.6 1544.0 1029.6 1561.0 1029.5C1579.0 1029.5 1584.1 1030.7 1594.8 1037.2C1606.0 1044.0 1608.6 1043.6 1620.0 1033.7C1622.5 1031.5 1625.5 1029.3 1626.7 1028.7C1630.8 1026.9 1631.4 1022.4 1630.0 1003.1C1627.3 962.3 1622.8 933.0 1616.3 912.5C1606.3 880.7 1599.4 859.7 1596.5 852.0C1593.8 844.7 1596.5 836.2 1603.6 830.0C1615.7 819.4 1633.7 822.9 1641.1 837.3C1643.0 840.9 1643.1 842.9 1642.8 866.3C1641.9 940.3 1642.7 969.7 1646.5 994.3C1650.0 1017.4 1652.2 1022.5 1663.9 1032.8C1675.2 1042.9 1677.8 1050.6 1674.6 1064.4C1672.9 1071.7 1671.0 1074.2 1662.9 1080.3C1651.3 1088.9 1647.3 1089.6 1630.5 1085.9C1625.2 1084.8 1619.1 1084.0 1616.7 1084.2C1612.0 1084.5 1613.1 1081.4 1605.6 1114.0C1597.6 1148.6 1594.9 1178.2 1598.6 1192.4C1601.2 1202.6 1607.6 1211.3 1613.3 1212.4C1631.8 1216.0 1647.2 1218.1 1650.6 1217.5C1678.3 1212.7 1711.6 1194.3 1721.8 1178.3C1723.5 1175.6 1726.0 1169.8 1727.5 1165.3C1729.5 1159.1 1732.0 1154.4 1737.7 1146.3C1748.3 1131.1 1749.7 1128.8 1753.7 1119.6C1768.7 1084.9 1767.9 1054.0 1751.3 1029.3C1749.1 1026.1 1746.8 1022.0 1746.2 1020.1C1743.7 1012.9 1745.4 1001.4 1749.9 995.1C1758.0 983.8 1780.2 983.4 1790.8 994.3C1798.1 1001.8 1799.7 1010.7 1797.2 1030.0C1795.6 1043.6 1798.1 1057.6 1805.8 1077.5C1819.8 1113.7 1821.2 1119.7 1821.3 1144.5C1821.5 1178.3 1815.2 1190.5 1788.2 1208.3C1775.7 1216.5 1774.0 1219.1 1775.8 1227.2C1776.5 1230.1 1777.5 1236.9 1778.0 1242.2C1780.5 1266.5 1789.6 1275.1 1829.0 1290.5C1865.5 1304.8 1889.5 1310.0 1938.0 1314.0C1944.9 1314.6 1959.7 1316.1 1971.0 1317.5C1982.3 1318.8 2000.6 1320.4 2011.7 1321.1C2035.2 1322.4 2041.3 1321.7 2053.0 1316.5C2062.5 1312.3 2067.2 1311.0 2073.6 1311.0C2088.4 1311.0 2098.3 1326.2 2092.1 1339.5C2087.5 1349.4 2080.6 1352.3 2066.5 1350.3ZM643.9 1344.1C639.0 1343.1 632.2 1339.0 627.8 1334.2C624.8 1331.0 622.8 1329.9 617.5 1328.6C603.6 1325.1 579.5 1310.9 553.3 1290.8C518.9 1264.4 512.4 1259.6 499.9 1251.2C492.4 1246.2 471.1 1233.1 452.7 1222.1C434.3 1211.0 415.5 1199.3 410.9 1195.9C402.0 1189.2 395.9 1186.1 392.1 1186.0C385.0 1186.0 373.8 1207.0 361.2 1244.0C356.9 1256.9 355.4 1280.1 358.4 1287.4C363.2 1299.0 353.8 1319.8 340.6 1326.8C333.5 1330.5 318.2 1330.8 310.6 1327.2C294.0 1319.6 288.7 1307.3 293.4 1287.8C297.5 1270.7 297.1 1267.9 285.3 1235.6C277.1 1212.9 273.4 1205.1 267.7 1197.3C259.5 1186.3 258.7 1184.0 258.1 1170.4C257.4 1155.2 256.5 1153.8 233.9 1130.4C212.1 1107.8 208.0 1101.1 208.0 1087.7C208.0 1072.3 225.5 1061.1 241.1 1066.5C257.4 1072.3 261.3 1080.1 268.4 1121.0C272.8 1145.9 275.2 1151.4 287.1 1162.1C299.4 1173.2 301.3 1180.9 294.4 1191.1C288.4 1200.0 288.4 1200.5 297.8 1223.5C298.9 1226.2 300.6 1231.4 301.5 1235.0C309.0 1263.7 315.1 1270.1 325.3 1260.2C331.5 1254.2 335.1 1245.4 347.6 1206.0C360.0 1166.9 361.2 1163.5 364.3 1158.6C368.1 1152.6 375.0 1148.0 380.0 1148.0C385.8 1148.0 394.5 1153.2 406.5 1163.6C418.1 1173.7 424.1 1177.7 451.5 1193.5C474.8 1206.9 485.9 1214.1 519.1 1237.1C561.2 1266.3 573.9 1274.1 597.6 1285.6C609.3 1291.3 619.6 1296.0 620.5 1296.0C625.0 1296.0 623.3 1290.0 613.7 1271.0C609.9 1263.6 603.2 1249.0 598.8 1238.5C594.3 1228.0 589.3 1216.1 587.5 1212.0C585.7 1207.9 582.0 1199.3 579.3 1193.0C576.6 1186.7 572.9 1177.2 571.0 1172.0C564.9 1154.2 562.6 1151.1 549.2 1141.7C537.0 1133.2 534.3 1129.3 529.0 1113.6C526.5 1106.1 526.8 1103.3 531.0 1091.6C533.9 1083.6 533.0 1079.4 522.4 1053.5C516.2 1038.2 513.2 1031.3 498.6 999.8C490.6 982.4 480.6 959.7 476.4 949.3C460.7 910.1 447.9 880.7 445.3 877.9C444.5 877.0 441.1 874.8 437.7 873.2C429.5 869.1 419.6 860.1 416.3 853.6C413.1 847.3 412.5 831.7 415.2 826.5C419.2 819.0 429.9 811.3 439.6 809.1C444.0 808.0 445.8 808.2 453.0 809.9C463.4 812.5 466.5 814.3 471.2 820.6C477.8 829.1 478.4 831.2 477.7 842.2C476.9 854.2 475.0 859.0 467.9 866.6C461.6 873.1 461.5 874.4 465.5 887.6C471.6 908.0 479.9 928.5 499.5 971.0C513.5 1001.4 519.3 1014.9 529.8 1041.5C544.2 1077.5 542.5 1075.3 554.5 1073.4C572.8 1070.4 576.3 1070.5 592.0 1074.4C625.2 1082.6 626.7 1083.3 642.0 1095.6C654.1 1105.3 659.3 1108.1 678.1 1114.4C701.7 1122.4 704.9 1120.8 714.9 1095.6C718.2 1087.4 719.7 1084.9 726.7 1076.2C734.0 1067.2 734.2 1066.5 734.5 1039.0C734.7 1025.5 735.3 1000.8 735.9 984.0C739.3 885.5 735.3 837.7 722.2 819.0C715.8 809.8 715.7 809.5 715.0 793.4C714.4 778.7 714.2 778.0 710.8 770.7C703.3 755.0 692.3 741.6 684.9 739.1C682.6 738.4 674.8 738.1 662.9 738.2C645.8 738.5 644.1 738.3 638.7 736.2C627.2 731.8 622.1 733.6 620.1 743.0C617.5 755.1 615.4 820.3 617.3 829.2C617.9 832.2 619.3 833.9 624.0 837.5C627.3 840.0 634.2 846.0 639.4 850.9C646.1 857.1 650.1 860.0 653.1 860.9C658.4 862.5 660.9 864.1 669.0 871.0C677.1 877.8 677.0 877.7 677.0 882.3C677.0 892.5 670.7 904.4 662.5 909.5C653.3 915.2 645.1 914.4 620.9 905.7C599.8 898.1 587.2 897.0 548.8 899.6C526.8 901.1 512.3 893.8 501.7 875.9C498.1 869.7 498.0 869.3 498.0 859.7C498.0 844.7 502.1 838.1 515.1 832.0C527.2 826.4 538.2 826.1 552.6 831.0C575.0 838.8 587.6 837.2 593.9 826.0C596.8 820.9 599.5 801.0 601.1 773.7C603.8 725.0 596.8 670.8 584.8 647.8C574.6 628.3 546.4 618.4 515.4 623.4C494.6 626.7 448.0 625.0 438.2 620.5C417.4 611.0 410.2 580.6 425.6 567.0C440.9 553.6 459.5 554.0 486.6 568.4C491.3 570.9 501.9 577.4 510.3 582.8C532.4 597.3 545.5 603.1 563.0 606.4C571.3 608.0 571.3 608.0 582.9 604.1C614.9 593.2 636.0 597.1 645.1 615.6C650.3 626.2 646.8 657.5 638.9 671.5C632.1 683.5 633.9 685.0 663.0 691.5C667.4 692.4 675.3 695.5 682.0 698.8C697.8 706.6 698.6 706.6 717.2 697.2C731.2 690.1 732.0 689.9 740.6 689.3C765.6 687.7 788.7 700.1 798.7 720.5C808.0 739.4 804.9 761.2 786.5 806.0C767.8 851.4 766.4 860.0 764.9 939.5C763.7 1001.5 763.9 1013.0 766.0 1015.5C767.2 1016.9 768.9 1017.1 776.9 1016.8C785.9 1016.5 786.9 1016.3 792.5 1012.8C799.7 1008.4 808.5 1005.7 824.6 1003.0C843.9 999.7 846.9 999.0 854.3 995.4C859.5 992.9 862.8 992.0 866.5 992.0C877.8 992.0 878.2 990.9 873.4 975.9C863.1 943.0 862.1 940.8 849.5 918.5C838.8 899.4 837.9 897.9 834.3 889.1C826.8 871.2 831.0 856.7 845.5 850.5C851.0 848.1 862.3 848.2 867.5 850.6C888.0 860.1 891.4 870.3 889.0 914.8C887.7 939.5 888.1 952.6 890.6 967.4C893.3 983.5 895.9 988.1 909.8 1002.5C925.9 1019.0 929.2 1031.0 922.9 1050.0C917.6 1066.0 917.9 1079.3 924.2 1107.0C927.2 1120.6 930.2 1128.0 933.7 1131.2C935.9 1133.2 950.7 1136.3 969.0 1138.6C991.9 1141.4 1011.8 1139.3 1017.7 1133.4C1024.0 1127.1 1017.4 1108.5 1003.5 1093.0C991.3 1079.4 986.7 1067.0 986.8 1048.0C986.9 1029.2 985.4 1024.7 964.3 982.0C956.8 966.9 948.3 948.6 945.5 941.5C934.8 915.0 933.1 912.3 918.6 897.0C904.2 881.8 900.8 872.3 906.0 861.4C909.7 853.8 914.6 851.5 926.4 851.6C937.5 851.7 941.8 852.9 966.5 863.2C992.6 874.1 1010.1 875.0 1022.2 866.1C1027.2 862.4 1035.4 859.7 1046.5 858.0C1064.9 855.3 1074.8 851.1 1083.6 842.4C1104.6 821.4 1100.5 785.4 1072.2 743.0C1035.0 687.1 942.1 643.7 850.0 639.1C829.0 638.1 822.8 638.8 809.5 644.0C787.3 652.5 771.9 649.5 772.0 636.5C772.1 624.7 783.3 616.9 795.3 620.4C798.7 621.4 803.7 622.8 806.3 623.6C810.1 624.6 812.8 624.7 818.3 623.9C870.7 616.6 959.2 638.3 1020.6 673.6C1067.8 700.6 1103.0 744.9 1114.2 791.0C1114.9 794.2 1115.5 801.8 1115.4 809.0C1115.4 831.3 1108.4 845.6 1090.9 859.6C1086.9 862.8 1084.0 865.9 1084.0 866.9C1084.0 868.7 1088.0 872.7 1097.2 880.2C1106.1 887.4 1110.0 897.9 1110.0 914.5C1109.9 933.4 1106.1 944.5 1092.9 964.0C1085.3 975.0 1084.1 977.5 1082.1 985.3C1080.9 990.2 1078.1 997.8 1075.9 1002.3C1070.0 1013.9 1069.8 1018.5 1074.3 1032.2C1080.6 1051.2 1080.3 1055.3 1071.6 1073.4C1061.1 1095.0 1061.3 1095.6 1080.5 1107.7C1092.6 1115.3 1100.5 1119.1 1113.0 1123.3C1142.4 1133.1 1150.4 1134.4 1162.5 1131.5C1165.8 1130.7 1170.8 1130.0 1173.6 1130.0C1181.1 1130.0 1182.4 1128.6 1182.8 1119.7C1183.1 1114.4 1182.6 1109.9 1181.1 1103.9C1179.9 1099.3 1178.2 1089.9 1177.4 1083.0C1175.6 1069.1 1173.8 1064.3 1167.5 1057.2C1162.1 1051.0 1157.3 1049.0 1147.8 1049.0C1135.4 1049.0 1117.8 1039.2 1114.5 1030.6C1112.0 1024.0 1114.4 1016.3 1121.1 1009.6C1126.0 1004.8 1126.0 1004.8 1133.7 1005.5C1140.9 1006.1 1147.4 1007.6 1167.0 1013.1C1173.5 1015.0 1178.6 1015.3 1204.5 1016.0C1247.8 1017.1 1256.1 1019.9 1258.5 1034.1C1261.1 1049.3 1248.0 1062.4 1232.1 1060.6C1213.5 1058.5 1215.4 1058.2 1210.3 1063.6C1205.7 1068.4 1205.7 1068.4 1206.3 1096.4C1207.2 1135.5 1210.1 1157.8 1216.6 1175.9C1223.6 1195.2 1223.2 1195.0 1248.1 1195.0C1258.9 1195.0 1275.8 1195.5 1285.6 1196.2C1320.1 1198.4 1338.0 1197.0 1342.3 1191.8C1344.4 1189.3 1344.3 1188.8 1341.7 1172.0C1340.8 1166.2 1339.5 1157.2 1338.9 1152.0C1338.3 1146.8 1337.2 1139.3 1336.5 1135.5C1334.9 1126.9 1332.6 1112.0 1330.6 1097.5C1325.0 1055.9 1323.7 1045.0 1321.5 1023.0C1315.6 962.8 1310.3 933.7 1302.5 917.9C1300.5 913.8 1294.7 904.2 1289.6 896.5C1277.7 878.6 1273.1 869.5 1271.8 861.1C1270.0 849.5 1268.1 847.5 1253.5 841.9C1241.3 837.2 1232.2 830.0 1220.3 815.7C1204.1 796.3 1194.3 779.0 1190.0 762.4C1184.1 739.9 1183.1 737.1 1180.3 735.2C1177.9 733.7 1173.8 733.4 1149.0 732.9C1117.3 732.2 1105.5 730.1 1091.7 722.8C1073.1 712.8 1080.4 687.0 1101.8 687.0C1111.1 687.0 1126.5 692.6 1138.7 700.4C1144.6 704.1 1165.1 709.7 1176.7 710.7C1182.6 711.2 1184.9 710.8 1193.5 708.0C1208.4 703.2 1215.4 704.3 1221.4 712.4C1224.7 716.7 1224.7 728.4 1221.6 745.3C1220.2 752.9 1219.0 761.2 1219.0 763.8C1219.1 787.7 1245.6 818.6 1269.8 823.0C1277.4 824.3 1282.7 823.2 1291.3 818.5C1299.6 813.9 1305.5 813.1 1310.6 815.8C1312.8 816.9 1316.3 818.3 1318.5 818.9C1323.3 820.1 1329.9 825.5 1333.9 831.4C1343.8 845.8 1343.7 874.1 1333.6 895.0C1323.3 916.5 1323.5 951.8 1334.7 1026.5C1336.1 1035.8 1337.6 1046.9 1338.1 1051.0C1338.5 1055.1 1339.6 1063.5 1340.5 1069.5C1341.3 1075.5 1342.6 1085.5 1343.5 1091.5C1344.3 1097.5 1345.6 1107.0 1346.5 1112.5C1347.4 1118.0 1348.7 1126.8 1349.5 1132.0C1352.1 1148.6 1356.8 1171.2 1359.5 1179.3C1363.0 1190.0 1365.1 1193.8 1371.0 1200.3C1386.9 1217.7 1382.5 1239.5 1362.4 1243.1C1354.1 1244.5 1345.6 1242.6 1327.3 1234.9C1301.2 1224.0 1291.0 1221.4 1269.9 1220.3C1251.3 1219.4 1242.0 1221.1 1220.0 1229.6C1208.6 1234.0 1194.5 1231.0 1187.7 1222.7C1178.2 1211.0 1176.7 1205.7 1178.7 1190.5C1180.5 1176.6 1180.2 1176.0 1172.6 1176.0C1163.2 1176.0 1157.2 1173.5 1151.0 1167.0C1148.0 1163.8 1144.3 1160.5 1142.9 1159.6C1137.0 1155.9 1107.6 1151.5 1083.7 1150.8C1082.0 1150.7 1077.0 1153.1 1070.2 1157.3C1057.1 1165.2 1052.9 1166.5 1033.6 1168.5C1014.7 1170.4 1010.2 1171.3 1003.3 1174.7C997.9 1177.4 996.4 1178.8 988.1 1189.7C983.8 1195.2 967.4 1210.2 960.4 1215.1C950.6 1221.8 925.8 1223.1 914.9 1217.5C904.2 1211.9 893.4 1188.5 895.6 1175.6C897.1 1166.3 902.2 1153.3 908.5 1142.5C910.7 1138.7 912.0 1135.2 912.0 1132.9C912.0 1124.4 899.4 1078.6 895.3 1072.4C893.5 1069.5 893.0 1069.4 877.5 1065.8C860.2 1061.8 845.7 1061.1 833.4 1063.6C819.3 1066.5 811.8 1066.1 796.1 1061.2C778.8 1055.7 773.0 1055.0 770.2 1057.8C766.3 1061.7 769.8 1067.1 784.9 1079.9C793.1 1086.9 799.3 1100.0 802.0 1116.1C805.3 1135.5 793.2 1156.1 772.6 1166.0C764.6 1169.9 763.1 1170.3 753.7 1170.7C736.8 1171.6 730.6 1169.5 708.3 1155.3C677.8 1135.9 667.8 1134.6 625.5 1144.2C610.7 1147.6 605.2 1148.4 594.5 1148.7C574.1 1149.3 574.8 1148.6 581.4 1162.3C585.6 1171.1 595.8 1194.6 612.8 1234.0C624.4 1260.9 636.9 1287.9 639.9 1292.4C641.3 1294.6 644.8 1297.7 647.5 1299.3C671.1 1313.0 674.4 1342.2 652.5 1344.4C649.7 1344.6 645.9 1344.5 643.9 1344.1ZM2112.7 1333.6C2096.4 1327.7 2089.5 1309.4 2096.5 1290.0C2104.0 1268.9 2104.8 1260.8 2105.7 1197.0C2106.3 1148.0 2104.5 1094.3 2101.0 1059.5C2096.1 1011.2 2095.0 1004.7 2089.3 990.0C2084.1 976.8 2081.6 973.7 2075.2 972.0C2072.6 971.4 2066.0 968.0 2060.5 964.6C2040.6 952.1 2035.9 950.9 2013.0 953.1C1998.1 954.5 1992.0 954.7 1974.5 953.9C1963.6 953.5 1960.6 954.4 1959.0 958.4C1955.4 967.9 1958.0 1069.0 1962.1 1080.9C1962.7 1082.6 1966.2 1086.5 1969.8 1089.6C1978.6 1097.1 1980.1 1098.9 1986.3 1109.4C1992.4 1119.8 1994.9 1121.6 2003.9 1122.5C2017.1 1123.7 2024.3 1125.1 2028.3 1127.2C2040.2 1133.2 2046.0 1141.4 2046.0 1152.5C2045.9 1166.8 2039.1 1173.9 2022.2 1177.0C2013.2 1178.6 2006.0 1176.9 1990.0 1169.5C1966.1 1158.3 1961.8 1157.5 1934.5 1158.6C1895.2 1160.3 1892.1 1159.8 1867.5 1146.7C1861.7 1143.6 1861.4 1143.3 1858.3 1135.5C1854.6 1126.4 1854.3 1122.5 1856.7 1115.4C1860.0 1105.6 1866.0 1098.6 1874.8 1094.3C1880.5 1091.5 1880.5 1091.5 1899.9 1091.8C1922.3 1092.1 1926.2 1091.3 1932.4 1085.2C1939.6 1078.3 1939.3 1080.3 1940.1 1021.5C1940.9 968.7 1940.9 968.4 1938.4 951.1C1935.5 929.9 1935.4 926.5 1938.1 912.5C1940.0 902.6 1940.1 900.6 1939.0 892.0C1935.3 862.6 1929.6 850.5 1914.1 838.6C1902.3 829.5 1892.4 825.8 1873.8 823.5C1861.6 822.0 1860.9 822.0 1853.4 824.0C1846.6 825.8 1843.8 825.9 1830.1 825.4C1817.3 824.9 1812.9 825.1 1805.5 826.5C1781.6 831.3 1749.5 826.6 1732.9 815.9C1709.4 800.8 1705.1 765.4 1724.2 744.4C1730.3 737.8 1737.9 733.7 1749.3 731.0C1773.5 725.2 1794.4 731.8 1829.0 756.5C1873.1 787.9 1896.1 796.4 1914.9 788.5C1938.7 778.5 1971.4 787.1 1981.0 805.9C1988.4 820.5 1986.8 833.8 1974.7 860.1C1962.9 885.6 1958.8 904.0 1964.2 907.4C1966.7 908.9 1990.0 916.4 2005.2 920.5C2028.1 926.6 2044.4 927.5 2064.0 923.5C2078.8 920.5 2083.4 920.4 2090.0 922.9C2100.5 926.9 2105.7 933.0 2108.1 943.9C2109.2 949.2 2112.3 954.0 2114.4 954.0C2115.2 954.0 2117.6 956.0 2119.8 958.4C2126.8 965.9 2127.2 971.2 2123.2 1002.0C2117.5 1045.5 2115.8 1117.6 2119.0 1174.5C2119.6 1186.0 2120.5 1212.4 2120.9 1233.0C2121.8 1275.6 2122.1 1277.0 2129.5 1286.0C2141.4 1300.4 2138.7 1326.1 2124.6 1333.0C2119.7 1335.3 2117.9 1335.4 2112.7 1333.6ZM731.3 1286.6C721.0 1281.8 708.9 1267.9 707.0 1258.6C705.7 1252.0 707.0 1242.8 710.3 1236.1C719.6 1217.4 752.8 1214.1 765.4 1230.6C771.2 1238.1 773.3 1244.9 773.8 1257.6C774.5 1275.2 770.0 1282.8 756.4 1287.0C747.2 1289.8 738.0 1289.7 731.3 1286.6ZM410.3 1089.0C404.8 1087.8 400.9 1085.7 397.1 1081.9C390.4 1075.2 389.3 1069.7 391.6 1054.9C393.2 1044.2 393.2 1043.8 391.1 1035.4C385.7 1013.9 377.9 1005.8 358.5 1001.5C354.1 1000.6 345.6 998.2 339.5 996.3C322.7 991.0 312.2 992.2 287.2 1002.1C280.4 1004.8 272.1 1007.7 268.8 1008.5C261.6 1010.2 262.3 1009.5 238.5 1033.7C216.6 1055.9 214.7 1057.1 201.0 1057.8C185.6 1058.5 171.5 1053.5 162.8 1044.2C156.5 1037.4 155.7 1034.3 156.2 1016.4C156.5 1002.7 156.8 1001.0 159.3 995.6C160.8 992.4 162.0 988.5 162.0 987.0C162.0 982.0 148.7 945.6 136.5 917.1C127.7 896.4 125.5 890.9 116.3 865.0C108.3 842.4 100.6 823.8 94.9 813.0C90.2 804.2 86.8 799.3 73.7 782.6C71.1 779.3 66.8 772.3 64.2 767.1C56.2 751.1 57.2 741.0 67.7 730.6C72.5 725.8 72.9 723.0 68.8 723.0C65.4 722.9 54.2 717.9 47.4 713.4C33.3 704.1 26.8 693.2 23.1 672.6C20.9 660.8 23.0 633.8 26.5 627.0C27.3 625.4 28.0 623.4 28.0 622.5C28.0 621.7 29.1 618.9 30.4 616.2C31.7 613.6 33.7 609.7 34.8 607.5C36.0 605.0 37.8 597.0 39.4 586.0C40.8 576.4 43.1 561.1 44.5 552.0C45.9 542.9 47.4 531.0 48.0 525.5C51.6 489.7 57.4 475.9 76.0 458.7C85.8 449.6 92.8 446.9 105.8 446.9C131.0 447.0 154.6 464.3 190.3 508.7C208.6 531.5 210.0 532.5 211.3 524.3C213.7 509.8 226.5 503.0 260.3 498.4C283.2 495.3 306.6 491.5 315.0 489.6C318.6 488.7 325.2 488.0 329.7 488.0C350.8 488.0 360.9 498.9 372.5 534.5C376.6 546.8 384.4 566.8 393.1 587.5C394.8 591.4 397.3 597.2 398.7 600.5C423.3 658.7 452.6 710.7 482.9 749.9C496.6 767.8 496.7 767.8 492.9 775.3C486.1 788.7 481.2 790.6 445.8 793.5C391.2 798.1 360.1 806.9 335.5 824.6C324.6 832.5 313.6 839.7 304.7 844.8C293.8 851.0 290.3 850.6 278.1 841.9C271.6 837.3 270.2 837.1 264.8 840.8C255.3 847.0 237.2 843.3 227.7 833.1C221.6 826.6 220.4 822.6 220.9 811.0C221.7 794.6 221.4 788.6 219.7 784.0C218.8 781.5 217.4 777.6 216.5 775.3C211.3 760.8 186.1 705.3 179.9 694.8C178.2 691.9 171.1 681.9 164.1 672.5C147.4 650.1 145.4 647.2 141.3 638.2C134.8 624.2 136.9 611.2 146.7 605.0C159.7 596.7 174.5 602.1 182.6 618.1C188.4 629.7 190.9 638.5 196.6 667.0C203.9 703.5 214.6 736.7 228.1 764.5C234.2 777.1 238.1 780.9 251.2 787.5C257.7 790.7 264.3 794.9 267.1 797.5C272.7 802.8 274.6 803.0 284.6 799.9C292.7 797.3 299.5 797.1 310.6 799.0C321.2 800.7 328.0 799.4 342.0 792.9C358.2 785.4 402.7 772.7 444.5 763.5C462.8 759.5 463.6 755.2 449.6 733.8C443.2 723.9 424.4 687.4 409.0 655.0C402.8 642.1 395.1 625.9 391.8 619.0C388.5 612.1 382.0 598.4 377.3 588.5C372.6 578.6 366.4 565.5 363.6 559.4C356.9 545.4 348.7 532.9 341.8 526.3C327.8 513.2 315.7 512.7 277.5 523.7C247.1 532.4 244.3 534.2 247.0 542.7C251.2 555.7 266.9 589.6 275.5 604.0C296.8 639.6 302.8 658.8 296.5 671.5C292.8 679.1 288.0 682.3 279.3 682.8C265.7 683.7 259.2 679.4 253.7 666.0C251.7 661.3 248.2 652.8 245.8 647.0C243.3 641.2 238.0 627.0 234.0 615.5C221.2 578.7 214.9 566.2 197.1 542.0C169.2 504.1 145.5 482.8 125.8 477.8C114.9 475.1 109.5 475.6 99.5 480.6C90.1 485.2 88.5 487.7 84.5 503.5C72.4 550.8 79.1 595.4 100.1 607.2C102.6 608.6 104.6 610.8 105.9 613.5C107.0 615.8 109.2 618.8 110.9 620.1C112.6 621.4 115.3 623.5 116.9 624.8C127.0 632.5 135.3 661.5 132.8 680.6C130.8 696.6 116.6 714.0 99.5 721.5C93.3 724.3 92.6 726.2 96.9 728.4C107.8 734.1 112.6 747.1 114.0 775.0C116.3 821.6 126.3 857.3 157.3 930.0C162.3 941.6 173.9 969.6 176.0 974.9C178.7 981.6 181.3 982.0 215.5 981.4C247.7 980.8 260.0 979.7 283.5 975.0C291.8 973.3 304.7 970.9 312.3 969.5C328.6 966.6 330.4 965.7 339.3 957.1C350.4 946.4 351.3 944.3 348.9 934.1C347.7 929.1 344.6 921.2 341.3 914.6C335.2 902.5 333.7 895.3 336.0 888.6C340.9 873.8 362.0 867.9 372.8 878.3C383.2 888.3 386.9 899.3 387.7 923.0C388.3 939.8 388.9 941.4 396.3 946.9C411.0 957.9 412.6 964.2 406.9 987.8C403.5 1001.7 403.5 1006.2 406.9 1018.2C410.4 1030.4 413.0 1033.4 426.0 1040.5C441.1 1048.7 444.6 1055.3 441.7 1070.7C439.7 1081.4 437.7 1085.5 433.5 1087.5C429.4 1089.4 416.2 1090.3 410.3 1089.0ZM1015.4 1010.8C1024.8 999.9 1024.9 984.8 1015.9 959.0C1009.4 940.6 1007.8 931.1 1007.8 911.7C1007.8 898.8 1007.4 894.8 1006.4 894.2C1005.7 893.8 1001.3 893.8 996.8 894.2C992.2 894.6 981.8 895.2 973.5 895.6C957.9 896.3 954.0 897.3 954.0 900.8C954.0 903.0 962.3 925.0 968.0 938.0C972.7 948.8 981.3 965.3 990.2 980.8C993.6 986.6 998.3 995.7 1000.8 1000.9C1007.8 1016.1 1009.8 1017.4 1015.4 1010.8ZM1233.0 956.3C1232.2 956.0 1229.6 954.4 1227.2 952.8C1217.8 946.4 1210.6 944.8 1189.9 944.9C1168.2 945.1 1161.4 943.6 1154.2 937.4C1144.0 928.7 1142.9 915.0 1151.7 906.9C1157.5 901.4 1162.8 899.5 1172.2 899.5C1180.7 899.5 1181.0 899.6 1191.2 904.9C1207.2 913.2 1210.2 914.0 1229.0 914.9C1243.0 915.6 1246.2 916.0 1249.8 917.9C1261.7 923.9 1264.3 939.7 1255.1 948.9C1250.2 953.8 1237.4 958.1 1233.0 956.3ZM1770.0 942.1C1757.1 937.9 1746.4 925.3 1745.3 913.1C1744.9 908.5 1745.3 906.3 1747.4 901.3C1751.4 891.6 1751.5 891.7 1736.3 866.7C1699.9 806.7 1663.8 766.4 1621.1 738.0C1589.9 717.2 1562.1 713.6 1545.6 728.1C1540.4 732.7 1538.6 736.7 1537.0 747.4C1535.1 760.0 1536.4 764.2 1547.6 782.0C1557.0 797.0 1564.6 823.2 1562.5 833.2C1560.6 842.1 1553.5 850.6 1543.8 855.7C1535.9 859.8 1522.9 859.7 1515.0 855.6C1500.7 848.2 1480.8 820.9 1475.1 801.0C1472.0 790.5 1471.8 786.4 1473.6 777.0C1474.6 772.1 1475.0 766.8 1474.6 764.8C1472.7 754.8 1443.0 722.0 1420.2 704.7C1406.4 694.3 1396.1 690.4 1372.4 686.3C1362.3 684.6 1362.3 684.6 1354.4 688.4C1337.1 696.6 1329.0 703.1 1329.0 708.9C1329.0 711.6 1332.2 718.1 1336.5 724.0C1347.6 739.4 1348.8 755.2 1339.8 768.9C1329.1 785.3 1321.9 790.0 1307.5 790.0C1280.5 789.9 1262.9 771.5 1262.6 743.0C1262.4 726.9 1273.6 709.3 1289.5 700.8C1296.9 696.8 1300.3 694.1 1309.0 685.1C1317.1 676.8 1321.1 673.5 1326.5 670.8C1361.9 652.7 1402.9 663.1 1444.0 700.6C1456.0 711.5 1468.0 724.8 1472.8 732.3C1479.7 743.2 1483.5 748.3 1485.3 749.4C1488.7 751.4 1493.7 744.1 1501.9 725.8C1508.1 711.8 1524.8 698.9 1542.5 694.5C1566.6 688.5 1597.9 697.8 1629.7 720.6C1673.0 751.8 1723.9 811.4 1753.5 866.0C1762.9 883.2 1764.3 884.8 1773.7 888.4C1791.6 895.2 1800.6 910.8 1796.0 926.9C1792.8 938.3 1780.3 945.5 1770.0 942.1ZM2057.0 855.1C2041.4 850.1 2032.0 840.2 2032.0 828.8C2032.0 809.3 2054.8 793.8 2074.6 799.8C2087.6 803.8 2093.8 811.5 2094.7 825.0C2095.6 836.9 2094.7 839.4 2087.8 846.6C2077.8 857.0 2069.7 859.2 2057.0 855.1ZM973.5 796.1C970.2 795.1 962.3 791.8 956.0 788.7C943.0 782.4 939.0 781.4 920.0 780.0C879.7 776.9 865.6 770.6 860.4 753.4C856.9 741.8 860.0 730.4 868.5 723.4C885.7 709.4 911.9 714.0 938.0 735.6C950.7 746.1 955.0 748.4 959.9 747.5C975.8 744.6 993.7 746.3 1002.7 751.6C1017.1 760.0 1016.1 787.7 1001.1 795.7C995.5 798.6 982.7 798.8 973.5 796.1ZM2069.0 729.8C2064.4 726.8 2061.8 721.6 2062.4 717.0C2064.5 702.0 2065.1 705.2 2054.6 680.3C2049.2 667.8 2043.8 655.0 2042.5 652.0C2041.3 649.0 2039.9 645.5 2039.6 644.4C2038.1 639.5 2035.9 638.8 2030.5 641.6C2025.9 644.0 2024.8 644.1 2016.0 643.6C2008.6 643.2 2004.4 643.6 1997.5 645.1C1963.8 652.5 1905.2 643.4 1864.5 624.5C1859.5 622.2 1849.0 616.4 1841.1 611.6C1828.1 603.6 1826.6 603.0 1825.2 604.4C1823.8 605.8 1823.8 606.5 1825.4 612.0C1836.2 651.2 1892.3 692.5 1956.0 708.4C1973.4 712.8 1979.1 713.5 1996.0 713.5C2015.4 713.5 2019.9 712.5 2028.5 706.5C2038.0 699.8 2042.1 699.5 2048.6 705.2C2055.3 711.1 2055.0 721.0 2048.1 725.7C2043.7 728.7 2039.1 728.6 2033.2 725.6C2026.1 722.0 2022.5 721.7 2009.7 723.5C1976.2 728.1 1909.5 713.4 1871.1 692.9C1847.7 680.4 1826.4 659.2 1805.0 627.1C1796.5 614.4 1776.2 582.3 1772.5 575.8C1770.8 572.9 1768.7 570.4 1767.7 570.2C1766.8 570.0 1754.2 576.1 1739.7 583.6C1705.7 601.5 1702.0 603.3 1689.8 607.4C1664.4 616.0 1642.9 619.2 1582.5 623.5C1559.8 625.1 1547.2 626.6 1543.3 628.1C1538.5 629.9 1529.6 629.0 1516.9 625.5C1504.6 622.0 1500.8 621.1 1473.0 615.0C1447.1 609.3 1424.1 601.3 1416.4 595.5C1414.5 594.1 1411.4 590.4 1409.5 587.4C1406.0 582.0 1406.0 582.0 1395.2 582.0C1370.8 582.0 1356.9 573.6 1346.7 552.9C1334.3 527.5 1330.7 503.6 1333.1 461.9C1333.9 447.9 1334.5 433.8 1334.4 430.5C1334.3 427.2 1334.1 417.8 1333.9 409.5C1333.5 394.7 1333.5 394.4 1336.4 388.2C1344.3 371.0 1363.8 367.3 1378.5 380.1C1391.2 391.2 1388.3 404.7 1368.0 429.0C1356.4 442.9 1351.9 454.8 1350.0 476.8C1346.3 519.3 1363.1 554.8 1389.8 561.0C1396.1 562.5 1400.7 561.5 1415.1 555.9C1444.8 544.3 1455.4 534.1 1472.0 501.0C1474.8 495.4 1479.5 487.1 1482.4 482.6C1494.4 464.3 1501.9 443.9 1509.6 409.0C1515.4 382.7 1515.2 340.9 1509.2 330.6C1508.2 328.9 1504.9 326.4 1501.0 324.4C1492.1 319.8 1486.3 313.3 1479.6 300.1C1474.9 290.9 1473.5 288.9 1471.2 288.4C1469.7 288.1 1466.3 287.4 1463.7 286.7C1457.6 285.3 1452.6 286.6 1443.9 291.7C1432.6 298.3 1414.2 318.3 1409.0 329.5C1408.2 331.4 1407.4 337.8 1407.0 346.5C1406.4 361.8 1405.3 365.2 1399.8 369.3C1395.8 372.3 1387.4 372.7 1382.4 370.2C1368.0 362.8 1367.6 347.4 1381.6 337.5C1392.6 329.7 1394.3 327.9 1412.4 303.4C1421.3 291.2 1429.5 284.1 1441.0 278.6C1449.4 274.5 1449.6 274.5 1459.5 274.8C1484.7 275.6 1482.7 275.9 1491.4 270.7C1511.8 258.7 1525.6 261.6 1548.9 282.9C1567.6 299.9 1571.7 301.8 1627.5 320.0C1662.8 331.5 1703.2 354.0 1741.9 383.9C1755.5 394.3 1779.5 414.6 1783.9 419.4C1787.2 422.9 1790.0 422.7 1793.9 418.6C1802.0 410.3 1816.7 406.9 1835.4 409.1C1844.4 410.1 1862.8 410.5 1906.5 410.5C1956.2 410.6 1967.5 410.9 1978.0 412.3C2013.6 417.2 2039.3 425.2 2065.0 439.5C2079.2 447.4 2081.0 448.0 2092.8 448.0C2107.1 448.0 2112.7 451.3 2118.1 462.5C2123.3 473.2 2121.5 484.6 2113.8 490.3C2108.3 494.4 2107.1 494.8 2076.4 502.5C2021.5 516.4 1986.0 528.2 1980.3 534.5C1976.9 538.3 1978.2 540.4 1993.2 555.4C2019.4 581.5 2030.9 599.6 2050.5 645.5C2065.3 680.3 2074.1 697.1 2081.3 704.8C2088.3 712.2 2089.8 715.9 2088.6 722.5C2087.1 730.1 2075.8 734.4 2069.0 729.8ZM1990.4 633.6C1997.8 631.8 2000.7 629.7 2004.7 622.9C2008.4 616.5 2011.4 613.6 2015.5 612.3C2017.3 611.7 2018.6 610.5 2018.8 609.4C2019.3 605.8 2003.5 583.4 1993.1 572.9C1980.5 560.3 1977.0 558.6 1958.5 556.5C1950.8 555.6 1941.7 554.0 1938.4 552.9C1920.0 546.9 1913.4 528.4 1925.4 516.4C1932.6 509.2 1944.7 508.1 1957.9 513.4C1970.1 518.3 1984.5 516.1 2014.9 504.8C2041.5 494.9 2069.3 480.7 2073.4 474.8C2075.7 471.6 2075.5 463.3 2073.0 459.3C2067.8 450.7 2032.7 435.5 2003.3 429.1C1978.9 423.8 1965.7 422.5 1934.0 422.6C1878.5 422.7 1856.3 428.7 1831.8 450.3C1823.9 457.2 1823.4 459.0 1829.0 461.5C1834.1 463.8 1838.2 468.4 1840.5 474.4C1842.5 479.6 1841.0 485.8 1837.0 489.5C1833.9 492.3 1834.5 493.4 1841.4 497.9C1861.3 510.7 1865.7 526.1 1858.6 556.8C1854.5 574.2 1854.2 580.8 1856.9 588.0C1864.2 607.2 1899.1 624.9 1945.5 632.9C1959.1 635.2 1981.9 635.6 1990.4 633.6ZM1251.5 630.4C1238.2 624.8 1235.4 624.1 1218.7 623.1C1201.3 622.0 1195.3 621.0 1172.0 615.4C1140.8 607.8 1126.7 602.8 1116.8 595.5C1108.6 589.6 1104.4 587.3 1093.7 583.1C1065.2 571.7 1059.2 565.6 1046.5 534.6C1043.1 526.4 1039.7 519.2 1038.8 518.6C1037.6 517.9 1035.1 518.0 1030.3 519.0C1019.7 521.1 1014.2 520.6 1006.5 516.9C998.4 513.0 995.5 513.4 979.2 520.6C965.3 526.8 960.3 528.0 948.0 528.0C922.3 528.0 908.6 517.2 907.1 496.0C906.3 485.1 906.7 485.5 891.4 478.7C864.8 466.8 853.0 455.0 836.0 423.0C823.6 399.6 819.0 392.5 808.9 381.0C793.7 363.5 789.0 354.4 789.0 342.0C789.0 313.2 824.3 299.7 846.5 320.1C857.6 330.3 858.9 347.3 850.3 369.7C845.2 383.1 844.6 394.0 848.4 404.9C856.2 427.2 873.5 448.8 891.2 458.5C901.2 464.0 911.1 464.1 923.5 459.1C941.5 451.8 948.9 443.4 956.0 422.6C969.5 382.9 963.6 306.2 942.9 253.0C938.1 240.7 936.6 238.8 928.2 234.7C915.3 228.5 908.3 214.7 911.0 200.6C912.4 193.0 912.1 192.2 902.6 180.4C894.6 170.4 892.5 169.4 878.6 168.6C862.4 167.7 854.8 163.1 836.5 143.1C832.6 138.9 832.4 138.8 827.3 139.2C820.4 139.8 812.8 144.9 806.1 153.2C792.0 170.9 785.8 193.0 785.6 226.5C785.5 246.6 786.1 249.6 791.6 256.1C801.3 267.7 796.2 282.0 782.2 282.0C768.4 282.0 762.9 269.6 771.0 256.9C774.8 250.8 774.7 251.9 774.1 219.5C773.4 186.2 782.9 155.6 799.4 138.2C806.1 131.0 810.6 128.6 822.4 125.5C834.7 122.4 837.4 120.7 844.4 112.0C853.4 100.9 859.6 97.2 872.7 95.0C883.1 93.3 891.4 94.9 908.5 102.0C924.9 108.8 932.5 110.6 947.5 111.4C967.3 112.5 982.3 114.2 991.5 116.1C1006.6 119.4 1035.1 126.8 1041.5 129.0C1048.3 131.4 1063.8 135.0 1067.2 135.0C1068.5 135.0 1074.5 132.5 1080.5 129.5C1109.4 115.0 1138.2 116.7 1155.0 133.9C1162.1 141.2 1166.0 148.6 1170.6 164.0C1174.3 176.4 1177.2 183.4 1183.0 194.0C1185.1 197.8 1186.3 201.8 1186.9 206.8C1187.7 213.0 1188.5 215.1 1191.9 220.0C1201.5 233.7 1218.7 279.3 1227.6 315.0C1231.1 328.8 1236.0 355.8 1237.5 369.5C1239.9 391.8 1240.7 395.6 1245.3 405.5C1252.1 420.1 1250.9 427.6 1240.9 432.8C1233.1 436.9 1222.3 434.4 1218.0 427.5C1213.6 420.4 1214.6 413.1 1221.1 404.9C1227.5 396.8 1228.2 389.6 1225.0 365.0C1219.2 320.3 1208.0 280.4 1191.1 244.1C1180.2 220.8 1180.2 220.8 1174.3 217.4C1171.6 215.9 1166.6 211.9 1163.0 208.4C1155.1 200.7 1151.9 199.3 1139.3 198.0C1119.8 195.8 1109.1 191.9 1093.2 181.3C1081.2 173.2 1074.6 166.8 1068.4 157.5C1064.8 152.0 1061.8 148.7 1059.1 147.2C1050.3 142.3 994.7 127.9 992.6 130.0C991.9 130.7 992.4 132.6 993.8 135.5C996.4 140.9 996.7 149.7 994.5 154.0C992.6 157.6 988.8 160.3 982.4 162.4C972.4 165.7 971.3 168.6 970.1 194.0C969.2 214.2 967.5 219.3 958.0 230.3C952.0 237.4 952.0 237.0 957.1 251.7C962.7 267.6 962.7 267.6 969.2 261.3C972.1 258.5 978.0 253.3 982.2 249.8C992.7 241.2 1009.4 220.1 1014.2 209.4C1016.1 205.0 1016.1 204.7 1014.4 198.2C1012.3 190.0 1013.0 184.8 1016.9 180.9C1020.5 177.3 1026.6 175.7 1031.9 176.9C1049.9 180.9 1051.5 200.0 1034.5 207.5C1026.7 210.9 1025.1 213.5 1011.5 244.9C1008.8 251.2 1005.1 268.9 1005.0 276.0C1004.9 281.7 1001.4 293.9 998.3 298.9C994.4 305.2 989.7 307.5 980.0 307.5C972.5 307.5 972.5 307.5 972.2 310.5C971.8 313.3 973.9 331.6 976.2 346.0C977.8 356.4 978.4 401.6 977.1 411.0C975.2 424.0 972.3 433.7 966.3 446.7C963.3 453.3 961.0 459.6 961.2 460.6C961.5 462.4 966.1 465.9 985.8 479.3C999.1 488.4 999.9 488.5 1014.5 484.0C1019.9 482.4 1025.1 481.0 1026.1 481.0C1030.0 481.0 1030.9 477.3 1029.8 466.6C1027.5 444.7 1036.5 403.9 1047.1 388.3C1053.2 379.4 1064.1 369.0 1071.0 365.5C1106.4 347.7 1112.3 349.0 1148.9 383.9C1160.2 394.7 1177.4 411.0 1187.0 420.1C1242.6 472.7 1264.4 502.6 1279.5 547.5C1287.1 570.1 1288.7 573.0 1298.6 582.6C1307.9 591.6 1309.2 594.7 1307.0 602.5C1304.3 612.1 1296.2 618.3 1286.6 618.1C1280.6 618.0 1280.6 618.0 1275.1 624.0C1266.4 633.3 1261.5 634.6 1251.5 630.4ZM1577.0 610.5C1577.9 609.4 1577.9 608.3 1577.0 605.8C1576.4 604.0 1574.8 595.1 1573.5 586.0C1570.0 561.7 1563.7 543.8 1545.0 505.0C1539.5 493.7 1534.8 483.3 1534.4 481.7C1534.1 480.2 1532.2 477.5 1530.3 475.7C1528.3 474.0 1525.9 471.6 1524.9 470.6C1515.0 460.4 1528.4 444.4 1540.1 452.3C1544.7 455.4 1546.7 460.0 1547.5 469.5C1548.6 481.9 1550.4 487.1 1560.0 506.5C1564.9 516.4 1571.0 529.9 1573.6 536.5C1581.7 557.4 1586.2 565.8 1593.7 574.0C1607.7 589.4 1610.0 593.5 1610.0 602.5C1610.0 609.7 1610.0 609.7 1628.6 607.5C1647.5 605.2 1647.1 605.4 1644.1 599.3C1641.7 594.3 1638.0 583.5 1638.0 581.2C1638.0 578.5 1621.2 537.6 1607.5 507.0C1600.5 491.3 1582.3 454.8 1580.2 452.4C1579.3 451.3 1575.6 448.3 1572.1 445.7C1564.5 440.2 1562.0 436.8 1562.0 431.9C1562.0 424.5 1569.5 419.7 1577.7 421.9C1583.7 423.5 1586.5 427.5 1588.5 436.7C1590.8 447.7 1591.8 450.6 1599.6 468.0C1618.9 511.4 1648.2 567.5 1659.2 581.8C1664.2 588.4 1665.2 590.9 1665.4 596.9C1665.5 600.4 1665.6 600.5 1669.5 600.4C1674.3 600.3 1691.0 594.2 1691.7 592.3C1692.0 591.5 1691.1 588.7 1689.6 586.0C1686.0 579.4 1684.5 574.0 1681.6 557.0C1680.2 549.0 1678.2 540.2 1677.2 537.5C1676.1 534.8 1674.3 529.9 1673.0 526.7C1668.7 515.4 1652.1 483.3 1645.2 473.0C1638.0 462.1 1634.1 457.9 1627.8 454.1C1615.1 446.5 1618.5 431.0 1632.9 431.0C1640.1 431.0 1644.1 435.7 1647.1 447.8C1649.1 455.6 1655.5 468.5 1670.8 495.5C1691.0 531.2 1695.8 538.1 1711.0 553.0C1721.1 562.9 1724.0 566.4 1725.2 569.9C1727.5 577.2 1728.3 577.2 1742.2 570.2C1765.3 558.7 1763.5 560.7 1772.5 536.2C1778.8 519.1 1795.5 500.8 1809.1 496.0C1816.9 493.3 1817.0 492.8 1811.2 486.6C1806.0 481.1 1806.0 481.1 1806.0 472.3C1806.0 462.2 1805.7 461.5 1798.8 457.6C1792.8 454.2 1789.5 449.9 1786.8 441.9C1783.4 431.5 1777.3 424.7 1756.5 408.1C1732.8 389.0 1706.0 370.8 1686.5 360.3C1675.0 354.1 1650.5 342.0 1649.4 342.0C1649.2 342.0 1644.4 340.0 1638.7 337.6C1590.1 316.9 1557.2 312.1 1530.8 322.0C1523.8 324.6 1523.7 324.8 1525.6 337.8C1528.4 356.6 1526.7 388.6 1521.6 412.0C1520.8 415.6 1519.7 421.0 1519.0 424.0C1516.4 436.1 1510.5 455.1 1505.4 467.7C1502.4 475.1 1500.0 481.9 1500.0 482.8C1500.0 483.8 1502.0 487.0 1504.5 489.9C1509.8 496.0 1510.6 498.5 1509.4 504.8C1507.3 516.7 1509.0 524.0 1518.5 543.8C1526.6 560.7 1533.1 570.8 1541.9 580.3C1550.4 589.4 1554.0 595.2 1554.0 599.7C1554.0 604.8 1556.0 610.1 1558.3 611.0C1562.1 612.5 1575.6 612.2 1577.0 610.5ZM1248.8 607.4C1253.0 605.4 1258.5 603.2 1260.9 602.6C1265.1 601.5 1265.3 601.3 1267.5 595.0C1268.7 591.4 1270.9 586.0 1272.4 583.0C1275.5 576.4 1275.6 572.8 1273.0 562.9C1264.3 529.4 1237.7 487.7 1201.0 449.7C1169.7 417.3 1155.4 408.7 1122.0 402.0C1098.7 397.3 1090.6 398.8 1076.4 410.8C1049.1 433.7 1043.9 464.2 1060.2 504.5C1067.0 521.2 1073.5 524.1 1087.7 517.1C1103.6 509.1 1112.8 496.1 1113.7 480.6C1114.2 472.7 1114.1 472.4 1110.6 467.0C1104.1 457.0 1102.7 453.3 1103.2 447.3C1104.0 438.1 1112.0 432.0 1123.5 432.0C1139.7 432.0 1145.9 445.2 1137.7 462.4C1133.1 472.2 1131.4 482.2 1130.6 505.5C1129.6 533.7 1127.9 541.6 1120.1 554.3C1115.5 561.8 1115.0 565.0 1118.0 568.0C1120.5 570.5 1121.3 570.5 1126.3 567.6C1128.6 566.3 1132.5 564.6 1135.0 564.0C1145.0 561.3 1152.2 556.4 1157.2 548.8C1165.2 536.7 1166.2 525.4 1160.4 513.4C1156.2 504.8 1155.7 499.3 1158.7 495.2C1165.5 486.2 1176.8 486.3 1184.9 495.5C1188.8 500.0 1188.9 504.0 1185.6 512.5C1184.2 515.8 1182.6 522.6 1182.0 527.5C1178.5 555.8 1176.1 564.1 1165.5 583.0C1161.2 590.7 1162.2 594.2 1169.4 597.6C1177.8 601.5 1180.3 601.0 1183.4 594.7C1185.2 591.0 1188.6 587.0 1194.5 581.6C1207.6 569.7 1208.5 565.9 1201.6 554.5C1188.2 532.2 1216.4 513.3 1231.0 534.8C1234.4 539.6 1234.3 546.7 1230.8 553.5C1227.5 560.1 1224.7 569.3 1222.5 581.0C1221.5 586.2 1219.4 594.1 1217.9 598.5C1214.6 607.6 1214.8 608.2 1222.0 609.8C1232.3 612.0 1240.5 611.3 1248.8 607.4ZM1507.8 603.8C1508.9 602.3 1510.7 582.7 1510.2 576.5C1509.5 567.0 1497.9 528.6 1493.5 521.3C1488.6 513.1 1483.6 514.1 1475.8 524.7C1472.6 529.0 1464.9 538.1 1458.5 545.0C1447.6 556.9 1445.2 560.8 1447.9 562.5C1448.5 562.8 1452.1 568.2 1456.0 574.5C1466.5 591.4 1474.7 597.8 1492.4 602.6C1501.7 605.2 1506.3 605.5 1507.8 603.8ZM794.0 558.6C788.6 557.1 781.7 553.6 777.1 550.1C762.0 538.6 766.2 515.3 785.2 505.7C808.2 494.1 831.0 507.3 831.0 532.1C831.0 541.0 829.1 544.9 821.1 552.3C812.8 560.0 805.3 561.7 794.0 558.6ZM1405.6 513.5C1400.7 511.8 1396.3 507.6 1393.9 502.5C1388.6 491.1 1395.6 478.8 1410.8 472.4C1420.0 468.6 1427.2 463.7 1431.8 458.2C1447.4 439.4 1457.9 410.4 1458.4 384.3C1458.5 376.8 1458.3 375.9 1455.9 373.3C1448.1 365.0 1446.3 358.9 1449.6 351.2C1454.5 339.4 1467.5 336.9 1477.0 345.9C1484.7 353.2 1484.8 363.1 1477.4 372.6C1472.3 379.3 1471.4 382.0 1470.5 395.0C1469.4 410.6 1461.3 436.2 1446.0 472.5C1431.0 508.0 1420.4 518.8 1405.6 513.5ZM630.5 510.0C627.2 508.3 622.4 505.6 619.9 503.9C613.5 499.7 606.3 498.9 582.5 499.6C558.7 500.3 542.0 498.8 517.5 493.5C410.0 470.4 285.0 395.1 285.0 353.5C285.0 340.2 296.5 330.4 314.6 328.0C346.5 323.7 352.1 319.2 342.3 305.9C333.9 294.3 324.4 285.5 312.6 278.1C292.7 265.7 284.2 253.8 281.3 234.1C278.0 211.6 286.4 194.0 305.3 183.9C316.5 177.9 324.0 176.9 354.6 177.0C385.8 177.1 391.3 176.5 408.1 171.1C414.9 169.0 425.9 166.0 432.5 164.6C439.1 163.1 448.3 161.0 453.0 160.0C514.3 146.2 578.7 138.5 627.5 139.2C651.6 139.5 651.6 139.5 658.1 135.5C666.8 130.1 676.1 129.8 685.5 134.7C688.8 136.4 695.1 139.0 699.5 140.5C724.3 148.9 729.6 160.3 723.0 190.5C719.1 208.2 719.2 218.0 723.3 242.5C730.5 284.3 729.4 341.6 720.4 403.5C720.0 405.7 717.3 416.5 714.4 427.5C705.3 460.8 704.9 464.0 707.6 475.7C711.9 494.1 706.4 504.1 691.7 504.8C678.8 505.4 671.7 498.9 671.7 486.3C671.6 476.1 674.2 472.2 684.8 466.5C692.4 462.5 694.3 459.2 697.9 444.2C717.6 361.0 720.9 299.5 708.6 242.4C702.3 213.2 683.6 183.8 665.0 173.9C659.2 170.8 651.0 163.0 651.0 160.6C651.0 158.3 645.2 153.1 641.4 152.0C632.4 149.2 609.1 149.6 578.5 152.9C508.2 160.5 477.7 165.2 447.1 173.0C397.7 185.6 393.3 189.2 384.5 223.7C380.2 240.2 379.0 242.6 369.7 252.3C361.3 261.0 359.0 265.0 359.0 270.7C359.0 279.0 368.0 291.5 379.4 299.3C400.2 313.4 405.0 326.8 393.8 339.5C386.6 347.7 376.2 352.4 360.6 354.6C345.8 356.7 340.0 360.3 334.6 370.7C325.8 388.0 354.3 413.6 415.5 443.6C460.9 465.8 496.0 477.1 545.1 485.4C565.5 488.9 607.2 490.2 613.5 487.6C615.4 486.8 619.7 483.9 623.0 481.1C631.5 474.0 632.5 473.6 641.5 473.5C651.1 473.5 655.6 475.7 660.1 482.9C667.4 494.3 661.3 507.2 646.6 511.5C639.6 513.6 637.3 513.4 630.5 510.0ZM1412.5 437.7C1401.2 432.5 1396.1 420.9 1401.2 411.9C1408.2 399.4 1425.6 399.3 1434.3 411.7C1439.4 418.8 1438.1 429.8 1431.5 436.0C1428.3 439.0 1417.5 439.9 1412.5 437.7ZM572.5 421.4C569.8 420.6 557.8 419.3 545.9 418.5C526.8 417.3 523.6 416.8 517.7 414.5C504.5 409.2 497.5 400.0 497.6 387.9C497.8 371.7 509.1 361.2 527.1 360.2C537.8 359.7 542.3 361.7 553.3 371.9C563.2 381.0 564.0 381.4 573.0 381.0C586.0 380.4 589.6 380.8 594.1 383.0C602.8 387.4 606.3 393.0 606.3 402.5C606.4 418.5 591.4 426.8 572.5 421.4ZM900.7 420.0C888.7 417.9 877.3 409.2 874.6 399.9C871.0 388.0 872.9 382.0 887.5 358.5C896.8 343.6 897.5 341.0 897.4 325.0C897.4 310.2 895.2 297.2 890.0 279.7C881.4 251.0 870.9 234.4 857.6 228.5C834.7 218.4 837.9 192.0 862.0 192.0C872.0 192.0 877.6 196.4 880.6 206.8C885.7 224.4 887.8 229.9 895.0 244.5C904.0 263.0 908.9 277.0 915.4 303.0C921.5 327.1 924.3 336.3 928.9 346.9C935.0 360.5 936.3 367.5 935.8 383.1C935.4 394.8 935.1 397.2 932.8 402.1C926.3 416.2 915.1 422.5 900.7 420.0ZM1026.5 357.7C1017.0 353.2 1012.5 344.9 1013.2 333.3C1013.9 321.6 1018.1 315.8 1033.5 305.5C1044.6 298.2 1051.1 291.5 1057.1 281.3C1059.7 277.0 1065.2 267.7 1069.4 260.6C1077.0 247.8 1077.0 247.8 1076.8 238.0C1076.5 226.9 1077.3 224.9 1084.7 219.7C1096.8 211.1 1114.2 222.2 1110.1 236.1C1108.5 241.3 1104.9 245.3 1099.8 247.4C1097.4 248.4 1094.0 249.8 1092.2 250.6C1086.5 253.0 1075.6 272.3 1068.0 293.5C1065.0 301.9 1064.7 303.8 1064.0 320.5C1063.0 341.1 1062.4 344.0 1057.4 349.9C1049.6 358.9 1036.2 362.3 1026.5 357.7ZM543.5 357.3C517.2 355.0 482.7 342.0 446.2 320.6C397.6 292.2 389.9 266.9 420.3 235.6C429.2 226.4 430.0 225.9 444.0 219.1C458.7 212.1 475.2 205.6 487.0 202.3C497.5 199.4 530.8 199.7 545.4 202.9C589.2 212.2 620.7 234.1 630.8 262.0C649.5 313.6 618.0 354.4 557.5 357.2C552.0 357.5 545.7 357.5 543.5 357.3ZM576.8 336.9C591.2 333.4 608.1 321.5 614.7 310.2C623.3 295.6 623.1 274.3 614.1 258.7C592.0 220.1 518.0 198.3 478.1 218.7C462.8 226.5 461.2 232.9 470.0 251.8C475.7 264.3 476.1 266.6 474.6 282.1C471.8 310.0 494.7 329.8 537.3 336.5C547.7 338.1 570.7 338.3 576.8 336.9ZM528.0 311.3C527.2 311.0 524.0 309.8 521.0 308.7C517.2 307.3 513.2 304.6 507.9 299.6C503.7 295.7 497.2 289.9 493.6 286.6C483.9 278.1 482.6 275.0 483.3 262.3C484.3 242.8 489.6 237.4 507.7 237.6C544.0 238.1 574.4 250.4 583.8 268.4C587.8 276.1 587.7 286.8 583.5 293.5C579.8 299.5 571.0 305.7 561.5 309.0C554.5 311.3 532.0 312.9 528.0 311.3ZM831.5 299.7C822.0 297.2 811.8 281.8 813.3 272.3C817.6 246.2 855.1 243.7 866.2 268.8C874.1 286.5 852.9 305.4 831.5 299.7ZM555.2 291.9C575.7 287.6 573.9 269.9 552.0 259.3C536.7 251.9 524.7 253.3 519.8 263.1C511.4 279.4 532.6 296.6 555.2 291.9ZM1321.8 291.6C1307.5 286.4 1298.3 270.3 1301.1 255.6C1303.8 241.8 1319.5 210.1 1335.1 186.9C1367.5 138.7 1411.5 114.0 1465.5 113.6C1483.6 113.5 1490.0 114.9 1496.4 120.2C1507.2 129.1 1505.6 145.8 1492.0 165.4C1482.7 178.8 1474.3 185.3 1448.0 199.5C1431.2 208.5 1422.0 214.7 1398.3 233.2C1388.9 240.5 1376.5 249.3 1370.8 252.7C1359.2 259.7 1352.4 266.1 1348.7 273.5C1341.1 288.6 1331.4 295.1 1321.8 291.6ZM1367.1 237.4C1375.6 231.7 1391.6 220.7 1402.6 212.9C1425.2 196.8 1444.7 183.7 1456.7 176.5C1471.6 167.7 1479.5 159.2 1484.4 146.8C1489.4 134.1 1487.3 129.2 1475.5 125.9C1453.6 119.8 1414.0 129.7 1386.4 148.2C1357.6 167.4 1331.6 209.1 1335.9 229.2C1338.2 239.5 1345.6 249.8 1349.7 248.3C1350.7 248.0 1358.5 243.1 1367.1 237.4ZM1255.6 201.5C1237.8 195.2 1234.1 175.5 1247.6 157.8C1255.1 147.9 1256.8 143.2 1258.6 127.4C1260.7 108.5 1262.2 103.0 1269.2 89.3C1281.2 65.4 1297.9 44.1 1308.2 39.2C1328.3 29.9 1358.4 46.7 1355.5 65.7C1353.9 76.7 1346.3 94.7 1339.4 104.2C1337.5 106.8 1329.3 115.2 1321.2 123.0C1290.8 152.1 1284.0 161.5 1284.0 174.4C1284.0 194.2 1270.8 206.9 1255.6 201.5ZM938.3 177.9C956.2 169.0 959.5 164.5 958.5 150.1C957.7 139.4 958.5 136.4 963.8 130.8C967.2 127.1 966.4 126.6 957.1 126.7C940.5 126.9 929.9 130.8 920.8 140.1C913.5 147.6 906.0 157.6 906.0 159.9C906.0 164.6 921.8 183.0 925.7 183.0C927.0 183.0 932.6 180.7 938.3 177.9ZM1291.1 136.3C1335.6 90.3 1345.6 69.7 1329.5 57.4C1316.5 47.5 1298.0 61.1 1282.8 91.5C1272.0 113.1 1265.6 144.6 1271.0 150.0C1274.0 153.0 1276.6 151.3 1291.1 136.3Z"/></svg>